<?xml version="1.0" encoding="iso-8859-1"?>
<!-- Uploaded to: SVG Repo, www.svgrepo.com, Generator: SVG Repo Mixer Tools -->
<!DOCTYPE svg PUBLIC "-//W3C//DTD SVG 1.1//EN" "http://www.w3.org/Graphics/SVG/1.1/DTD/svg11.dtd">
<svg height="800px" width="800px" version="1.1" id="Capa_1" xmlns="http://www.w3.org/2000/svg" xmlns:xlink="http://www.w3.org/1999/xlink" 
	 viewBox="20 0 240 273" xml:space="preserve">
<path style="fill:#000002;" d="M258.639,134.633c0-20.15-12.25-36.808-27.994-39.138c-2.553-2.89-5.754-5.191-9.376-6.676v-1.095
	c0-21.869-8.527-43.949-23.395-60.579C182.223,9.64,161.619,0,139.857,0S97.492,9.64,81.843,27.145
	c-14.868,16.63-23.395,38.71-23.395,60.579v1.096c-3.621,1.484-6.822,3.786-9.375,6.675c-15.744,2.329-27.994,18.987-27.994,39.139
	c0,20.153,12.25,36.812,27.995,39.141c3.025,3.424,6.959,6.027,11.425,7.418v9.15c0,11.467,8.543,23.225,19.448,26.767
	l43.329,14.074c4.753,1.543,9.082,7.502,9.082,12.5v28.533c0,4.142,3.357,7.5,7.5,7.5c4.143,0,7.5-3.358,7.5-7.5v-28.533
	c0-4.998,4.33-10.956,9.085-12.5l43.325-14.074c10.907-3.542,19.45-15.3,19.45-26.767v-9.15c4.466-1.391,8.4-3.995,11.427-7.418
	C246.389,171.443,258.639,154.785,258.639,134.633z M211.719,167.328c-5.659,0-10.264-4.604-10.264-10.262V112.2
	c0-5.658,4.605-10.262,10.264-10.262c5.658,0,10.262,4.604,10.262,10.262v44.866C221.98,162.725,217.377,167.328,211.719,167.328z
	 M139.857,15c17.708,0,34.326,8.515,46.511,21.878c-14.549-8.461-31.498-13.8-46.511-13.8s-31.961,5.338-46.51,13.8
	C105.531,23.515,122.15,15,139.857,15z M67.998,167.328c-5.658,0-10.262-4.604-10.262-10.262V112.2
	c0-5.658,4.604-10.262,10.262-10.262c5.659,0,10.264,4.604,10.264,10.262v44.866C78.262,162.725,73.657,167.328,67.998,167.328z
	 M42.736,115.31v38.648c-4.017-4.511-6.658-11.563-6.658-19.325C36.078,126.871,38.72,119.82,42.736,115.31z M195.134,202.842
	l-43.325,14.074c-4.548,1.477-8.672,4.395-11.95,8.112c-3.278-3.717-7.401-6.635-11.949-8.112l-43.328-14.074
	c-4.754-1.544-9.083-7.502-9.083-12.501v-9.15c10.28-3.202,17.764-12.806,17.764-24.125V112.2c0-12.057-8.493-22.162-19.81-24.662
	c0.022-9.06,1.756-17.848,4.829-26.007c14.248-16.052,40.529-28.453,61.576-28.453c21.048,0,47.329,12.401,61.576,28.453
	c3.074,8.159,4.807,16.947,4.83,26.007c-11.316,2.501-19.809,12.606-19.809,24.662v44.866c0,11.319,7.483,20.923,17.763,24.125v9.15
	C204.218,195.34,199.889,201.298,195.134,202.842z M236.98,153.957v-38.647c4.017,4.51,6.658,11.562,6.658,19.322
	C243.639,142.395,240.997,149.446,236.98,153.957z"/>
</svg>