<svg fill="none" width="800px" height="800px" viewBox="3.5 3.5 17 17" xmlns="http://www.w3.org/2000/svg"><path d="M6.27 5.041c-.964.165-1.836.923-2.134 1.856-.078.243-.109.442-.125.806-.032.703-.006.826.227 1.059.156.156.227.197.381.22.336.05.635-.094.777-.376.053-.107.079-.276.096-.626.029-.624.096-.813.385-1.104.411-.41-.145-.376 6.123-.376 6.269 0 5.712-.034 6.123.377.408.407.377-.008.377 5.123s.03 4.716-.376 5.123c-.368.367-.37.367-2.147.394l-1.523.023-.152.116a.746.746 0 0 0-.289.672c.027.221.127.382.337.542l.144.11 1.643-.001h1.643l.329-.111a2.898 2.898 0 0 0 1.761-1.765l.11-.323V7.22l-.111-.329a2.904 2.904 0 0 0-1.766-1.761l-.323-.11-5.66-.006c-3.113-.003-5.745.009-5.85.027m-1.745 5.988c-.053.01-.182.104-.287.209-.156.156-.197.227-.22.381-.05.337.11.66.394.794.083.04.342.078.692.103.665.047 1.05.121 1.616.309a5.483 5.483 0 0 1 3.455 3.455c.188.566.262.951.309 1.616.025.35.063.609.103.692.134.284.457.444.794.394.154-.023.225-.064.381-.22.158-.158.197-.226.221-.387.039-.255-.043-1.204-.148-1.713a7.038 7.038 0 0 0-4.695-5.281c-.816-.272-2.113-.447-2.615-.352m0 3c-.053.01-.182.104-.287.209-.156.156-.197.227-.22.381-.05.336.11.661.392.792.071.033.33.08.574.103.76.073 1.282.314 1.762.815.462.482.67.955.74 1.687.023.244.07.503.103.574.131.282.456.442.792.392.154-.023.225-.064.381-.22.237-.237.268-.391.201-.988a4.356 4.356 0 0 0-.428-1.485 4.017 4.017 0 0 0-1.824-1.824c-.675-.336-1.668-.534-2.186-.436m.148 3.034c-.369.114-.673.546-.673.957 0 .499.491.98 1 .98.517 0 1-.483 1-1 0-.402-.312-.827-.69-.939a.936.936 0 0 0-.637.002" fill-rule="evenodd" fill="#000"/></svg>